<svg width="96" height="347" viewBox="0 0 96 347" fill="none" xmlns="http://www.w3.org/2000/svg">
<path d="M72.7017 35.8208C72.7017 31.8068 71.911 27.832 70.3748 24.1236C68.8386 20.4151 66.587 17.0454 63.7484 14.2071C60.9099 11.3687 57.5401 9.11723 53.8313 7.58112C50.1226 6.04502 46.1476 5.25439 42.1333 5.25439L42.1333 35.8208H72.7017Z" fill="url(#paint0_radial_95_406)"/>
<path d="M72.7017 35.8208C72.7017 39.8348 71.911 43.8096 70.3748 47.518C68.8386 51.2265 66.587 54.5962 63.7484 57.4345C60.9099 60.2729 57.5401 62.5244 53.8313 64.0605C50.1226 65.5966 46.1476 66.3872 42.1333 66.3872L42.1333 35.8208H72.7017Z" fill="url(#paint1_radial_95_406)"/>
<path d="M11.5649 35.8208C11.5649 39.8348 12.3556 43.8096 13.8918 47.518C15.428 51.2265 17.6796 54.5962 20.5182 57.4345C23.3567 60.2729 26.7265 62.5244 30.4353 64.0605C34.144 65.5966 38.119 66.3872 42.1333 66.3872L42.1333 35.8208L11.5649 35.8208Z" fill="url(#paint2_radial_95_406)"/>
<path d="M42.1333 5.25436C38.119 5.25436 34.144 6.04499 30.4353 7.58109C26.7266 9.1172 23.3568 11.3687 20.5182 14.2071C17.6797 17.0454 15.428 20.415 13.8918 24.1235C12.3556 27.832 11.5649 31.8067 11.5649 35.8208L42.1333 35.8208V5.25436Z" fill="url(#paint3_radial_95_406)"/>
<rect x="1.13965" y="1.59521" width="84.9527" height="68.4514" rx="34.2257" stroke="black" stroke-width="1.5"/>
<path d="M94.7697 35.8209C94.7697 39.3981 93.6929 42.6072 91.9881 44.9045C90.2834 47.2019 87.9877 48.5491 85.5184 48.5491C83.0491 48.5491 80.7535 47.2019 79.0487 44.9045C77.344 42.6072 76.2671 39.3981 76.2671 35.8209C76.2671 32.2438 77.344 29.0347 79.0487 26.7374C80.7535 24.4399 83.0491 23.0928 85.5184 23.0928C87.9877 23.0928 90.2834 24.4399 91.9881 26.7374C93.6929 29.0347 94.7697 32.2438 94.7697 35.8209Z" stroke="black" stroke-width="1.5"/>
<g filter="url(#filter0_d_95_406)">
<mask id="mask0_95_406" style="mask-type:alpha" maskUnits="userSpaceOnUse" x="22" y="103" width="45" height="239">
<circle cx="44.5135" cy="125.546" r="21.701" fill="#D9D9D9"/>
<circle cx="44.3168" cy="255.144" r="21.701" fill="#D9D9D9"/>
<circle cx="44.9149" cy="191.845" r="21.701" fill="#D9D9D9"/>
<circle cx="44.7186" cy="319.443" r="21.701" fill="#D9D9D9"/>
</mask>
<g mask="url(#mask0_95_406)">
<path d="M31.6325 126.935C30.4325 126.935 28.9775 126.995 27.2675 127.115L26.1875 127.205C25.8875 127.235 25.6475 127.16 25.4675 126.98C25.3175 126.77 25.2425 126.545 25.2425 126.305C25.2425 126.035 25.3175 125.81 25.4675 125.63C25.6475 125.45 25.8875 125.375 26.1875 125.405L27.2675 125.495C29.1575 125.615 30.6125 125.675 31.6325 125.675H41.5775C42.0875 125.675 42.4775 125.54 42.7475 125.27C43.0175 124.97 43.1525 124.58 43.1525 124.1V109.16C43.1525 108.41 43.3625 107.855 43.7825 107.495C44.2325 107.105 44.7875 106.91 45.4475 106.91C45.9875 106.91 46.4375 107.015 46.7975 107.225C47.1575 107.435 47.3375 107.645 47.3375 107.855C47.3375 108.095 47.0975 108.23 46.6175 108.26C46.4375 108.29 46.2875 108.395 46.1675 108.575C46.0775 108.755 46.0325 108.95 46.0325 109.16V124.1C46.0325 124.58 46.1675 124.97 46.4375 125.27C46.7375 125.54 47.1275 125.675 47.6075 125.675H57.4625C58.0625 125.675 58.5575 125.555 58.9475 125.315C59.3675 125.045 59.8025 124.685 60.2525 124.235C60.9125 123.575 61.5875 123.245 62.2775 123.245C62.6675 123.245 63.0575 123.365 63.4475 123.605C63.8975 123.905 64.3175 124.265 64.7075 124.685C65.0375 125.075 65.2025 125.45 65.2025 125.81C65.2025 126.14 65.0675 126.41 64.7975 126.62C64.5275 126.83 64.1375 126.935 63.6275 126.935L47.6075 126.98C47.1275 126.98 46.7375 127.115 46.4375 127.385C46.1675 127.655 46.0325 128.045 46.0325 128.555V143.45C46.0325 143.99 45.8225 144.425 45.4025 144.755C45.0125 145.115 44.5925 145.295 44.1425 145.295C43.8425 145.295 43.5875 145.19 43.3775 144.98C43.1975 144.8 43.1225 144.53 43.1525 144.17V128.51C43.1525 128 43.0175 127.61 42.7475 127.34C42.4775 127.07 42.0875 126.935 41.5775 126.935H31.6325ZM25.4675 187.165C27.8075 185.275 30.0425 182.995 32.1725 180.325C34.3025 177.625 35.9975 174.49 37.2575 170.92C37.4075 170.47 37.6775 170.125 38.0675 169.885C38.4575 169.615 38.8775 169.48 39.3275 169.48C40.0775 169.48 40.6925 169.765 41.1725 170.335C41.3825 170.545 41.4875 170.755 41.4875 170.965C41.4875 171.085 41.4275 171.19 41.3075 171.28C41.2175 171.37 41.0975 171.415 40.9475 171.415C40.4975 171.415 40.1375 171.775 39.8675 172.495C39.8375 172.555 39.8225 172.645 39.8225 172.765C39.8225 173.125 40.0625 173.305 40.5425 173.305H45.8975C46.2575 173.305 46.5875 173.245 46.8875 173.125C47.1875 173.005 47.5175 172.81 47.8775 172.54C48.2075 172.27 48.5525 172.135 48.9125 172.135C49.2125 172.135 49.4975 172.225 49.7675 172.405C50.9075 173.125 51.4775 173.815 51.4775 174.475C51.4775 174.715 51.4175 174.895 51.2975 175.015C51.2075 175.135 51.0425 175.285 50.8025 175.465C50.3225 175.705 49.9025 176.08 49.5425 176.59C48.1025 178.6 46.7825 180.205 45.5825 181.405C45.2825 181.675 45.1325 181.93 45.1325 182.17C45.1325 182.35 45.2075 182.5 45.3575 182.62C45.5375 182.71 45.7775 182.755 46.0775 182.755H54.1325C54.4025 182.725 54.6425 182.65 54.8525 182.53C55.0925 182.38 55.3475 182.185 55.6175 181.945C56.0675 181.495 56.4425 181.27 56.7425 181.27C57.2225 181.24 57.7175 181.36 58.2275 181.63C58.7675 181.87 59.2175 182.185 59.5775 182.575C59.9375 182.935 60.1325 183.235 60.1625 183.475C60.1925 183.685 60.1625 183.85 60.0725 183.97C59.9825 184.06 59.8325 184.195 59.6225 184.375C59.3525 184.615 59.1425 184.84 58.9925 185.05C58.8725 185.23 58.8125 185.53 58.8125 185.95L58.8575 195.67C58.8575 196.18 58.6625 196.615 58.2725 196.975C57.8825 197.335 57.4775 197.515 57.0575 197.515C56.4875 197.515 56.1125 197.245 55.9325 196.705C55.7825 196.285 55.5425 196.075 55.2125 196.075L35.7275 196.03C35.2175 196.03 34.8125 196.18 34.5125 196.48C34.2425 196.75 34.1075 197.125 34.1075 197.605V204.265C34.1075 205.945 34.4525 207.01 35.1425 207.46C35.5925 207.76 36.8675 207.985 38.9675 208.135C41.0675 208.315 43.4975 208.405 46.2575 208.405C49.0775 208.405 51.6875 208.315 54.0875 208.135C56.4875 207.955 57.9875 207.73 58.5875 207.46C59.5775 206.95 60.0725 205.57 60.0725 203.32L60.0275 201.34C60.0275 200.98 60.0875 200.71 60.2075 200.53C60.3275 200.32 60.4775 200.215 60.6575 200.215C60.8375 200.215 60.9875 200.32 61.1075 200.53C61.2275 200.71 61.2875 200.995 61.2875 201.385L61.2425 202.645C61.2425 203.605 61.3625 204.22 61.6025 204.49C61.8125 204.73 61.9925 205.075 62.1425 205.525C62.2925 205.975 62.3675 206.455 62.3675 206.965C62.3675 208.135 61.7975 208.99 60.6575 209.53C59.7275 209.98 57.9575 210.325 55.3475 210.565C52.7675 210.805 49.9025 210.925 46.7525 210.925C43.7225 210.925 40.9625 210.805 38.4725 210.565C35.9825 210.355 34.3625 210.07 33.6125 209.71C32.6525 209.14 32.0075 208.48 31.6775 207.73C31.3475 206.98 31.1825 206.02 31.1825 204.85V185.455C31.1825 184.825 30.9725 184.51 30.5525 184.51C30.2825 184.51 30.0275 184.63 29.7875 184.87C28.3475 186.16 27.0875 187.18 26.0075 187.93C25.8575 188.05 25.6925 188.11 25.5125 188.11C25.2725 188.11 25.1525 187.99 25.1525 187.75C25.1525 187.54 25.2575 187.345 25.4675 187.165ZM33.7925 181C33.4925 181.3 33.3425 181.6 33.3425 181.9C33.3425 182.08 33.4325 182.245 33.6125 182.395C33.9125 182.635 34.1675 182.755 34.3775 182.755H41.4875C42.0575 182.755 42.5225 182.575 42.8825 182.215C43.8425 181.315 44.6525 180.325 45.3125 179.245C45.9725 178.135 46.4075 177.19 46.6175 176.41C46.6475 176.29 46.6625 176.14 46.6625 175.96C46.6625 175.57 46.5275 175.255 46.2575 175.015C45.9875 174.745 45.6425 174.61 45.2225 174.61H40.7225C40.2125 174.61 39.7625 174.73 39.3725 174.97C39.0125 175.18 38.5925 175.585 38.1125 176.185C37.0025 177.565 35.5625 179.17 33.7925 181ZM34.1075 193.195C34.1075 193.675 34.2425 194.065 34.5125 194.365C34.8125 194.635 35.2175 194.77 35.7275 194.77H42.4325C43.1825 194.77 43.5575 194.395 43.5575 193.645V185.185C43.5575 184.435 43.1825 184.06 42.4325 184.06H35.6375C35.1575 184.06 34.7825 184.195 34.5125 184.465C34.2425 184.735 34.1075 185.125 34.1075 185.635V193.195ZM46.4375 193.645C46.4375 194.395 46.8125 194.77 47.5625 194.77H54.3125C54.8225 194.77 55.2125 194.635 55.4825 194.365C55.7525 194.065 55.8875 193.675 55.8875 193.195L55.9325 185.635C55.9325 185.125 55.7975 184.735 55.5275 184.465C55.2575 184.195 54.8675 184.06 54.3575 184.06H47.5625C46.8125 184.06 46.4375 184.435 46.4375 185.185V193.645ZM32.5365 273.367C35.8512 270.727 38.1685 267.192 39.4885 262.763C40.8378 258.333 41.6005 253.391 41.7765 247.935C41.8058 247.436 41.6885 247.055 41.4245 246.791C41.1605 246.527 40.7938 246.395 40.3245 246.395C39.7378 246.395 38.5645 246.468 36.8045 246.615C36.5112 246.644 36.2765 246.571 36.1005 246.395C35.9538 246.189 35.8805 245.969 35.8805 245.735C35.8805 245.471 35.9538 245.251 36.1005 245.075C36.2765 244.899 36.5112 244.825 36.8045 244.855L40.2805 245.075C40.7792 245.104 41.1605 244.987 41.4245 244.723C41.6885 244.429 41.8205 244.033 41.8205 243.535V242.655C41.7618 239.721 41.7325 237.815 41.7325 236.935C41.7325 236.201 41.9378 235.659 42.3485 235.307C42.7885 234.925 43.3312 234.735 43.9765 234.735C44.5045 234.735 44.9445 234.837 45.2965 235.043C45.6485 235.248 45.8245 235.453 45.8245 235.659C45.8245 235.893 45.5898 236.025 45.1205 236.055C44.9445 236.084 44.7978 236.187 44.6805 236.363C44.5925 236.539 44.5485 236.729 44.5485 236.935V241.379V243.579C44.5485 244.077 44.6805 244.459 44.9445 244.723C45.2085 244.987 45.5898 245.119 46.0885 245.119H46.6605C46.9245 245.119 47.1592 245.075 47.3645 244.987C47.5698 244.869 47.8192 244.708 48.1125 244.503C48.6112 244.121 49.0072 243.931 49.3005 243.931C49.6232 243.931 50.0338 244.077 50.5325 244.371C51.0605 244.664 51.5152 245.001 51.8965 245.383C52.2778 245.735 52.4685 246.028 52.4685 246.263C52.4685 246.468 52.4245 246.629 52.3365 246.747C52.2485 246.835 52.1165 246.952 51.9405 247.099C51.7058 247.275 51.5152 247.465 51.3685 247.671C51.2512 247.876 51.1925 248.184 51.1925 248.595C51.1632 253.288 51.0898 256.969 50.9725 259.639C50.8552 262.308 50.5618 264.801 50.0925 267.119C49.6232 269.436 48.8898 271.284 47.8925 272.663C47.4818 273.249 47.0272 273.704 46.5285 274.027C46.0592 274.349 45.6192 274.511 45.2085 274.511C44.8565 274.511 44.5485 274.393 44.2845 274.159C44.0205 273.953 43.8298 273.631 43.7125 273.191C43.5365 272.633 43.1992 272.164 42.7005 271.783C42.2312 271.372 41.7912 271.049 41.3805 270.815C40.9698 270.58 40.7058 270.433 40.5885 270.375C40.1485 270.14 39.9285 269.847 39.9285 269.495C39.9285 269.319 39.9872 269.172 40.1045 269.055C40.2218 268.908 40.3832 268.835 40.5885 268.835C40.6765 268.835 40.8085 268.864 40.9845 268.923C41.1605 268.981 41.3805 269.084 41.6445 269.231C41.9378 269.377 42.1432 269.48 42.2605 269.539C42.7298 269.803 43.1112 270.008 43.4045 270.155C43.7272 270.272 44.0352 270.331 44.3285 270.331C44.7685 270.331 45.1498 270.155 45.4725 269.803C46.5578 268.541 47.3058 266.121 47.7165 262.543C48.1272 258.964 48.3472 254.08 48.3765 247.891C48.3765 247.392 48.2445 247.011 47.9805 246.747C47.7165 246.483 47.3352 246.351 46.8365 246.351H46.0445C45.0472 246.351 44.5192 246.864 44.4605 247.891C44.3138 251.821 43.9178 255.356 43.2725 258.495C42.6565 261.604 41.5418 264.537 39.9285 267.295C38.3445 270.052 36.1152 272.457 33.2405 274.511C32.9472 274.716 32.6832 274.819 32.4485 274.819C32.3018 274.819 32.1698 274.775 32.0525 274.687C31.9645 274.599 31.9205 274.481 31.9205 274.335C31.9205 274.012 32.1258 273.689 32.5365 273.367ZM24.3085 255.195C24.0152 255.224 23.7805 255.151 23.6045 254.975C23.4578 254.769 23.3845 254.549 23.3845 254.315C23.3845 254.051 23.4578 253.831 23.6045 253.655C23.7805 253.479 24.0152 253.405 24.3085 253.435L25.9805 253.567C26.6258 253.625 27.0072 253.655 27.1245 253.655C27.5938 253.655 27.9458 253.523 28.1805 253.259C28.4445 252.995 28.5765 252.613 28.5765 252.115V241.555C28.5765 241.085 28.4592 240.719 28.2245 240.455C27.9898 240.161 27.6525 240.015 27.2125 240.015C27.0952 240.015 26.7725 240.044 26.2445 240.103C24.9538 240.22 24.3085 240.279 24.3085 240.279C24.0152 240.308 23.7805 240.235 23.6045 240.059C23.4578 239.853 23.3845 239.633 23.3845 239.399C23.3845 239.135 23.4578 238.915 23.6045 238.739C23.7805 238.563 24.0152 238.489 24.3085 238.519L26.6405 238.695C27.8138 238.753 28.5178 238.783 28.7525 238.783H30.2485C30.8352 238.783 31.3192 238.665 31.7005 238.431C32.1112 238.167 32.5365 237.815 32.9765 237.375C33.6218 236.729 34.2672 236.407 34.9125 236.407C35.6458 236.407 36.4525 236.876 37.3325 237.815C37.6552 238.196 37.8165 238.563 37.8165 238.915C37.8165 239.237 37.6845 239.501 37.4205 239.707C37.1565 239.912 36.7752 240.015 36.2765 240.015L32.9325 240.059C32.4632 240.059 32.0818 240.191 31.7885 240.455C31.5245 240.719 31.3925 241.1 31.3925 241.599V251.147C31.3925 251.763 31.4805 252.261 31.6565 252.643C31.8325 253.024 32.0232 253.127 32.2285 252.951C32.4338 252.804 32.6832 252.584 32.9765 252.291C33.6218 251.645 34.2672 251.323 34.9125 251.323C35.6458 251.323 36.4525 251.792 37.3325 252.731C37.6552 253.112 37.8165 253.479 37.8165 253.831C37.8165 254.153 37.6845 254.417 37.4205 254.623C37.1565 254.828 36.7752 254.931 36.2765 254.931L32.9325 254.975C32.4632 254.975 32.0818 255.107 31.7885 255.371C31.5245 255.635 31.3925 256.016 31.3925 256.515V264.743C31.3925 265.153 31.4805 265.491 31.6565 265.755C31.8325 265.989 32.0672 266.107 32.3605 266.107C32.6538 266.107 32.9472 266.004 33.2405 265.799C34.1205 265.271 35.1325 264.581 36.2765 263.731C36.4818 263.584 36.6578 263.511 36.8045 263.511C36.9512 263.511 37.0685 263.569 37.1565 263.687C37.2738 263.804 37.3325 263.936 37.3325 264.083C37.3325 264.317 37.2152 264.552 36.9805 264.787C33.6072 267.837 30.3658 270.184 27.2565 271.827C26.8458 272.061 26.5672 272.252 26.4205 272.399C26.3032 272.545 26.3032 272.721 26.4205 272.927C26.4792 273.015 26.5085 273.132 26.5085 273.279C26.5085 273.572 26.3618 273.719 26.0685 273.719C26.0098 273.719 25.8632 273.689 25.6285 273.631C25.0125 273.396 24.5432 273.073 24.2205 272.663C23.8978 272.281 23.7365 271.871 23.7365 271.431C23.7365 270.991 23.9125 270.58 24.2645 270.199C24.6165 269.788 25.1005 269.48 25.7165 269.275C26.3325 269.099 26.8898 268.908 27.3885 268.703C28.1805 268.38 28.5765 267.793 28.5765 266.943V256.471C28.5765 255.444 28.2538 254.931 27.6085 254.931C27.4618 254.931 27.0072 254.96 26.2445 255.019C25.1885 255.136 24.5432 255.195 24.3085 255.195ZM53.7005 244.019C53.7005 243.696 53.9205 243.535 54.3605 243.535C54.8885 243.535 55.3138 243.608 55.6365 243.755C55.9885 243.901 56.3405 244.092 56.6925 244.327C57.0445 244.561 57.2938 244.679 57.4405 244.679H60.1245C60.3885 244.679 60.6378 244.62 60.8725 244.503C61.1365 244.356 61.3712 244.195 61.5765 244.019C61.7525 243.872 61.9432 243.74 62.1485 243.623C62.3538 243.476 62.5592 243.403 62.7645 243.403C63.2338 243.403 63.7032 243.549 64.1725 243.843C64.6712 244.136 65.0818 244.473 65.4045 244.855C65.7565 245.236 65.9325 245.544 65.9325 245.779C65.9325 245.984 65.8885 246.145 65.8005 246.263C65.7125 246.351 65.5805 246.468 65.4045 246.615C65.1698 246.791 64.9792 246.981 64.8325 247.187C64.7152 247.392 64.6565 247.7 64.6565 248.111V271.827C64.6565 272.384 64.4512 272.824 64.0405 273.147C63.6298 273.469 63.1752 273.631 62.6765 273.631C62.2365 273.631 61.9578 273.44 61.8405 273.059C61.7525 272.707 61.7085 272.003 61.7085 270.947C61.7085 270.419 61.5765 270.008 61.3125 269.715C61.0485 269.392 60.6672 269.231 60.1685 269.231H58.0565C57.5578 269.231 57.1765 269.348 56.9125 269.583C56.6485 269.788 56.5165 270.096 56.5165 270.507C56.5165 271.621 56.3258 272.413 55.9445 272.883C55.5632 273.381 55.1085 273.631 54.5805 273.631C53.9938 273.631 53.7005 273.293 53.7005 272.619V244.019ZM56.5165 266.459C56.5165 266.928 56.6485 267.309 56.9125 267.603C57.2058 267.867 57.5872 267.999 58.0565 267.999L60.3005 268.043C60.7992 268.043 61.1805 267.911 61.4445 267.647C61.7085 267.353 61.8405 266.972 61.8405 266.503V247.407C61.8405 246.908 61.7085 246.527 61.4445 246.263C61.1805 245.999 60.7992 245.867 60.3005 245.867H58.0565C57.5872 245.867 57.2058 245.999 56.9125 246.263C56.6485 246.527 56.5165 246.908 56.5165 247.407V266.459ZM56.8775 338.71C56.8775 339.25 56.6675 339.685 56.2475 340.015C55.8575 340.375 55.4375 340.555 54.9875 340.555C54.6875 340.555 54.4325 340.45 54.2225 340.24C54.0425 340.06 53.9675 339.79 53.9975 339.43V300.955C53.9975 300.205 54.2075 299.65 54.6275 299.29C55.0775 298.9 55.6325 298.705 56.2925 298.705C56.8325 298.705 57.2825 298.81 57.6425 299.02C58.0025 299.23 58.1825 299.44 58.1825 299.65C58.1825 299.89 57.9425 300.025 57.4625 300.055C57.2825 300.085 57.1325 300.19 57.0125 300.37C56.9225 300.55 56.8775 300.745 56.8775 300.955V306.49C56.8775 306.97 57.0125 307.36 57.2825 307.66C57.5825 307.93 57.9725 308.065 58.4525 308.065H59.4425C60.0425 308.065 60.5375 307.945 60.9275 307.705C61.3475 307.435 61.7825 307.075 62.2325 306.625C62.8925 305.965 63.5675 305.635 64.2575 305.635C64.6475 305.635 65.0375 305.755 65.4275 305.995C65.8775 306.295 66.2975 306.655 66.6875 307.075C67.0175 307.465 67.1825 307.84 67.1825 308.2C67.1825 308.53 67.0475 308.8 66.7775 309.01C66.5075 309.22 66.1175 309.325 65.6075 309.325L58.4525 309.37C57.9425 309.37 57.5525 309.505 57.2825 309.775C57.0125 310.045 56.8775 310.42 56.8775 310.9V315.985C56.8775 316.465 57.0125 316.855 57.2825 317.155C57.5825 317.425 57.9725 317.56 58.4525 317.56C59.1125 317.56 59.6375 317.44 60.0275 317.2C60.4475 316.93 60.8825 316.57 61.3325 316.12C61.9925 315.46 62.6675 315.13 63.3575 315.13C63.7475 315.13 64.1375 315.25 64.5275 315.49C64.9775 315.79 65.3975 316.15 65.7875 316.57C66.1175 316.96 66.2825 317.335 66.2825 317.695C66.2825 318.025 66.1475 318.295 65.8775 318.505C65.6075 318.715 65.2175 318.82 64.7075 318.82L58.4525 318.865C57.4025 318.805 56.8775 319.315 56.8775 320.395V325.12C56.8775 325.6 57.0125 325.99 57.2825 326.29C57.5825 326.56 57.9725 326.695 58.4525 326.695H59.4425C60.0425 326.695 60.5375 326.575 60.9275 326.335C61.3475 326.065 61.7825 325.705 62.2325 325.255C62.8925 324.595 63.5675 324.265 64.2575 324.265C64.6475 324.265 65.0375 324.385 65.4275 324.625C65.8775 324.925 66.2975 325.285 66.6875 325.705C67.0175 326.095 67.1825 326.47 67.1825 326.83C67.1825 327.16 67.0475 327.43 66.7775 327.64C66.5075 327.85 66.1175 327.955 65.6075 327.955L58.4525 328C57.9425 328 57.5525 328.135 57.2825 328.405C57.0125 328.675 56.8775 329.05 56.8775 329.53V338.71ZM39.9575 333.355C39.5075 333.205 39.1325 332.935 38.8325 332.545C38.5325 332.125 38.3825 331.69 38.3825 331.24C38.3825 330.37 38.9525 329.755 40.0925 329.395C42.4325 328.675 44.3225 328.015 45.7625 327.415C46.1525 327.235 46.4525 327.01 46.6625 326.74C46.8725 326.47 47.0075 326.125 47.0675 325.705C47.2175 324.475 47.3825 322.735 47.5625 320.485C47.6225 319.405 47.0975 318.865 45.9875 318.865C44.8475 318.865 43.8125 318.895 42.8825 318.955C41.9825 319.015 41.3825 319.06 41.0825 319.09C40.7825 319.12 40.5425 319.045 40.3625 318.865C40.2125 318.655 40.1375 318.43 40.1375 318.19C40.1375 317.92 40.2125 317.695 40.3625 317.515C40.5425 317.335 40.7825 317.26 41.0825 317.29C43.3925 317.44 45.0725 317.53 46.1225 317.56C47.1425 317.56 47.6825 317.035 47.7425 315.985C47.7725 314.905 47.7875 313.225 47.7875 310.945C47.7875 309.925 47.2625 309.385 46.2125 309.325C44.9825 309.325 43.5425 309.385 41.8925 309.505L40.6325 309.595C40.3325 309.625 40.0925 309.55 39.9125 309.37C39.7625 309.16 39.6875 308.935 39.6875 308.695C39.6875 308.425 39.7625 308.2 39.9125 308.02C40.0925 307.84 40.3325 307.765 40.6325 307.795L41.6225 307.84C44.0825 307.99 45.6125 308.065 46.2125 308.065C46.7225 308.065 47.1125 307.93 47.3825 307.66C47.6525 307.36 47.7875 306.97 47.7875 306.49V301.315C47.7875 300.595 48.0125 300.055 48.4625 299.695C48.9425 299.305 49.5125 299.11 50.1725 299.11C50.9525 299.11 51.5525 299.365 51.9725 299.875C52.0625 299.965 52.1075 300.07 52.1075 300.19C52.1075 300.46 51.9875 300.595 51.7475 300.595C51.4175 300.595 51.1625 300.655 50.9825 300.775C50.8325 300.865 50.7575 301.12 50.7575 301.54L50.8025 310.855C50.8025 315.955 50.6375 319.99 50.3075 322.96L50.2625 323.5C50.2625 324.01 50.3375 324.37 50.4875 324.58C50.6375 324.79 50.8475 324.82 51.1175 324.67L52.1975 323.995C52.3475 323.875 52.5125 323.815 52.6925 323.815C52.9325 323.815 53.0525 323.95 53.0525 324.22C53.0525 324.49 52.9025 324.76 52.6025 325.03L50.4875 326.65C49.9775 327.01 49.6025 327.595 49.3625 328.405C48.6725 331.015 47.6525 333.31 46.3025 335.29C44.9825 337.27 43.2125 338.95 40.9925 340.33C40.7825 340.48 40.5575 340.555 40.3175 340.555C40.1975 340.555 40.0925 340.51 40.0025 340.42C39.9125 340.36 39.8675 340.27 39.8675 340.15C39.8675 339.88 40.0175 339.64 40.3175 339.43C42.8975 337.39 44.7575 334.54 45.8975 330.88C45.9275 330.82 45.9425 330.73 45.9425 330.61C45.9425 330.31 45.8225 330.16 45.5825 330.16C45.4625 330.16 45.3275 330.205 45.1775 330.295C44.2775 330.805 43.1075 331.375 41.6675 332.005C41.5175 332.065 41.3075 332.155 41.0375 332.275C40.7975 332.365 40.6475 332.455 40.5875 332.545C40.5275 332.605 40.5275 332.695 40.5875 332.815C40.6175 332.875 40.6325 332.965 40.6325 333.085C40.6325 333.235 40.5725 333.34 40.4525 333.4C40.3325 333.43 40.1675 333.415 39.9575 333.355ZM24.3425 319.585C24.0425 319.615 23.8025 319.54 23.6225 319.36C23.4725 319.15 23.3975 318.925 23.3975 318.685C23.3975 318.415 23.4725 318.19 23.6225 318.01C23.8025 317.83 24.0425 317.755 24.3425 317.785L26.2775 317.92C26.8775 317.98 27.2525 318.01 27.4025 318.01C28.3925 318.01 28.8875 317.485 28.8875 316.435V306.355C28.8875 305.875 28.7675 305.5 28.5275 305.23C28.2875 304.96 27.9425 304.825 27.4925 304.825C27.3725 304.825 26.9825 304.855 26.3225 304.915L24.3425 305.05C24.0425 305.08 23.8025 305.005 23.6225 304.825C23.4725 304.615 23.3975 304.39 23.3975 304.15C23.3975 303.88 23.4725 303.655 23.6225 303.475C23.8025 303.295 24.0425 303.22 24.3425 303.25L26.7275 303.43C27.9275 303.49 28.6475 303.52 28.8875 303.52H30.7325C31.3325 303.52 31.8275 303.4 32.2175 303.16C32.6375 302.89 33.0725 302.53 33.5225 302.08C34.1825 301.42 34.8425 301.09 35.5025 301.09C36.2525 301.09 37.0775 301.57 37.9775 302.53C38.3075 302.92 38.4725 303.295 38.4725 303.655C38.4725 303.985 38.3375 304.255 38.0675 304.465C37.7975 304.675 37.4075 304.78 36.8975 304.78L33.3425 304.825C32.8625 304.825 32.4725 304.96 32.1725 305.23C31.9025 305.5 31.7675 305.89 31.7675 306.4V315.535C31.7675 316.195 31.8575 316.705 32.0375 317.065C32.2475 317.425 32.4725 317.515 32.7125 317.335C32.9225 317.185 33.1925 316.945 33.5225 316.615C34.1825 315.955 34.8425 315.625 35.5025 315.625C36.2525 315.625 37.0775 316.105 37.9775 317.065C38.3075 317.455 38.4725 317.83 38.4725 318.19C38.4725 318.52 38.3375 318.79 38.0675 319C37.7975 319.21 37.4075 319.315 36.8975 319.315L33.3425 319.36C32.8625 319.36 32.4725 319.495 32.1725 319.765C31.9025 320.035 31.7675 320.425 31.7675 320.935V330.88C31.7675 331.3 31.8575 331.645 32.0375 331.915C32.2175 332.155 32.4575 332.275 32.7575 332.275C32.9975 332.275 33.2975 332.17 33.6575 331.96C34.4075 331.54 35.4875 330.82 36.8975 329.8C37.1075 329.65 37.2875 329.575 37.4375 329.575C37.5875 329.575 37.7075 329.635 37.7975 329.755C37.8875 329.875 37.9325 330.01 37.9325 330.16C37.9325 330.43 37.8275 330.67 37.6175 330.88C34.1075 334 30.6875 336.4 27.3575 338.08C26.9075 338.29 26.6225 338.47 26.5025 338.62C26.3825 338.8 26.3825 338.995 26.5025 339.205C26.5625 339.295 26.5925 339.415 26.5925 339.565C26.5925 339.865 26.4425 340.015 26.1425 340.015C26.0825 340.015 25.9325 339.985 25.6925 339.925C25.0625 339.685 24.5825 339.355 24.2525 338.935C23.9225 338.545 23.7575 338.125 23.7575 337.675C23.7575 337.195 23.9225 336.76 24.2525 336.37C24.6125 335.98 25.1225 335.68 25.7825 335.47C26.0525 335.38 26.6675 335.17 27.6275 334.84C28.4675 334.57 28.8875 333.97 28.8875 333.04V320.89C28.8875 319.84 28.5575 319.315 27.8975 319.315C27.6875 319.315 27.1925 319.345 26.4125 319.405C25.1525 319.525 24.4625 319.585 24.3425 319.585Z" fill="black"/>
</g>
</g>
<defs>
<filter id="filter0_d_95_406" x="20.3843" y="104.91" width="51.2319" height="241.645" filterUnits="userSpaceOnUse" color-interpolation-filters="sRGB">
<feFlood flood-opacity="0" result="BackgroundImageFix"/>
<feColorMatrix in="SourceAlpha" type="matrix" values="0 0 0 0 0 0 0 0 0 0 0 0 0 0 0 0 0 0 127 0" result="hardAlpha"/>
<feOffset dx="1" dy="2"/>
<feGaussianBlur stdDeviation="2"/>
<feComposite in2="hardAlpha" operator="out"/>
<feColorMatrix type="matrix" values="0 0 0 0 0 0 0 0 0 0 0 0 0 0 0 0 0 0 0.25 0"/>
<feBlend mode="normal" in2="BackgroundImageFix" result="effect1_dropShadow_95_406"/>
<feBlend mode="normal" in="SourceGraphic" in2="effect1_dropShadow_95_406" result="shape"/>
</filter>
<radialGradient id="paint0_radial_95_406" cx="0" cy="0" r="1" gradientUnits="userSpaceOnUse" gradientTransform="translate(63.0144 13.7192) rotate(132.359) scale(24.3938 24.3939)">
<stop stop-color="#96E2DD"/>
<stop offset="1" stop-color="#9AE4DF" stop-opacity="0"/>
</radialGradient>
<radialGradient id="paint1_radial_95_406" cx="0" cy="0" r="1" gradientUnits="userSpaceOnUse" gradientTransform="translate(64.9574 56.023) rotate(-137.192) scale(24.3431 24.343)">
<stop stop-color="#D5B2EA"/>
<stop offset="1" stop-color="#D5B2EA" stop-opacity="0"/>
</radialGradient>
<radialGradient id="paint2_radial_95_406" cx="0" cy="0" r="1" gradientUnits="userSpaceOnUse" gradientTransform="translate(21.1291 57.4573) rotate(-45.4493) scale(23.8063 23.8063)">
<stop stop-color="#C4D4A6"/>
<stop offset="1" stop-color="#C4D4A6" stop-opacity="0"/>
</radialGradient>
<radialGradient id="paint3_radial_95_406" cx="0" cy="0" r="1" gradientUnits="userSpaceOnUse" gradientTransform="translate(19.7133 14.0073) rotate(44.8101) scale(24.4157 24.4157)">
<stop stop-color="#D8AAAA"/>
<stop offset="1" stop-color="#D8AAAA" stop-opacity="0"/>
</radialGradient>
</defs>
</svg>
